<svg width="20" height="20" viewBox="0 0 20 20" fill="none" xmlns="http://www.w3.org/2000/svg">
<path d="M14.6 12.025C14.4 11.925 13.1 11.325 12.9 11.225C12.7 11.125 12.5 11.125 12.3 11.325C12.1 11.525 11.7 12.125 11.5 12.325C11.4 12.525 11.2 12.525 11 12.425C10.3 12.125 9.6 11.725 9 11.225C8.5 10.725 8 10.125 7.6 9.525C7.5 9.325 7.6 9.125 7.7 9.025C7.8 8.925 7.9 8.725 8.1 8.625C8.2 8.525 8.3 8.325 8.3 8.225C8.4 8.125 8.4 7.925 8.3 7.825C8.2 7.725 7.7 6.525 7.5 6.025C7.4 5.325 7.2 5.325 7 5.325C6.9 5.325 6.7 5.325 6.5 5.325C6.3 5.325 6 5.525 5.9 5.625C5.3 6.225 5 6.925 5 7.725C5.1 8.625 5.4 9.525 6 10.325C7.1 11.925 8.5 13.225 10.2 14.025C10.7 14.225 11.1 14.425 11.6 14.525C12.1 14.725 12.6 14.725 13.2 14.625C13.9 14.525 14.5 14.025 14.9 13.425C15.1 13.025 15.1 12.625 15 12.225C15 12.225 14.8 12.125 14.6 12.025ZM17.1 2.925C13.2 -0.975 6.9 -0.975 3 2.925C-0.2 6.125 -0.8 11.025 1.4 14.925L0 20.025L5.3 18.625C6.8 19.425 8.4 19.825 10 19.825C15.5 19.825 19.9 15.425 19.9 9.925C20 7.325 18.9 4.825 17.1 2.925ZM14.4 16.925C13.1 17.725 11.6 18.225 10 18.225C8.5 18.225 7.1 17.825 5.8 17.125L5.5 16.925L2.4 17.725L3.2 14.725L3 14.425C0.6 10.425 1.8 5.425 5.7 2.925C9.6 0.425 14.6 1.725 17 5.525C19.4 9.425 18.3 14.525 14.4 16.925Z" fill="#F9F9F9"/>
</svg>
